#!OML:ASF H:\ColoradoDance\Project 1\Capture day 1\Session 8\male.ASF
:FULLY-SPECIFIED
:DEGREES
94
upperback -4.882810 0.166724 1.166550
rfoot 26.384199 0.984848
lradius 21.243799
lthumb 9.995420 72.750801
rradius 21.271200
lwrist -14.679900
rhand -35.905102 -0.541292
rhumerus 44.682899 -43.112099 -15.484600
lowerneck -0.991906 -0.752353 4.200880
lhand -16.212200 43.008099
ltibia 0.000000
head -6.826920 -1.419040 -0.698548
rwrist 8.995280
lfingers 7.125020
rtoes -0.813621
lowerback 4.276280 0.048754 1.069840
rfingers 7.125020
lclavicle 0.000000 -0.000000
upperneck -22.816900 -1.675870 -0.348042
rfemur -56.864700 -5.356680 27.958401
thorax -7.506390 0.034165 0.608141
rclavicle 0.000000 -0.000000
rtibia 118.821999
lfoot -6.931270 4.359640
lhumerus 67.249702 45.427101 38.625900
rthumb -9.018280 -30.328501
root -4.804630 20.045799 -5.225860 -298.957001 -81.904999 -65.988701
ltoes -12.037900
lfemur 9.303770 -1.921380 -17.545200
95
upperback -4.979550 -0.091633 0.826160
rfoot 26.321800 -7.976080
lradius 19.823601
lthumb 5.848520 82.619698
rradius 20.642000
lwrist -19.936600
rhand -36.090401 -1.236080
rhumerus 48.243999 -45.091400 -19.438200
lowerneck -0.686049 -0.868649 3.682720
lhand -20.508900 52.720501
ltibia 15.442200
head -7.088070 -1.494040 -0.586129
rwrist 9.352080
lfingers 7.125020
rtoes 11.421800
lowerback 3.596720 -0.099873 0.754770
rfingers 7.125020
lclavicle -0.000000 0.000000
upperneck -23.457899 -1.882670 -0.326388
rfemur -44.678001 -1.882650 26.059099
thorax -7.212590 -0.087391 0.453199
rclavicle -0.000000 0.000000
rtibia 98.999397
lfoot -14.212100 4.056860
lhumerus 63.513000 43.346199 37.372002
rthumb -9.197000 -31.015499
root -4.799240 19.849899 -5.347020 -303.162994 -82.055298 -60.995098
ltoes -13.090500
lfemur 0.560177 -1.196690 -17.712400
96
upperback -5.330030 0.374886 0.373127
rfoot -5.349970 2.479390
lradius 18.216999
lthumb -0.704109 87.435997
rradius 20.955700
lwrist -22.741800
rhand -38.916100 0.893242
rhumerus 56.075298 -46.719898 -26.701500
lowerneck -0.334921 -1.141640 3.265330
lhand -27.294100 57.457500
ltibia 35.174599
head -7.275100 -1.652380 -0.497965
rwrist 9.119340
lfingers 7.125020
rtoes 3.168480
lowerback 2.057110 0.280027 1.102490
rfingers 7.125020
lclavicle 0.000000 0.000000
upperneck -23.829000 -2.288350 -0.363361
rfemur -25.144100 4.727190 25.662600
thorax -6.688840 0.103680 -0.253890
rclavicle 0.000000 0.000000
rtibia 63.588501
lfoot -23.753500 3.282070
lhumerus 51.666801 39.081001 36.175999
rthumb -11.922700 -28.747299
root -4.796150 19.255899 -5.623220 -302.268005 -82.783096 -60.722801
ltoes -9.982310
lfemur -10.520700 -1.240890 -17.756800
97
upperback -5.620420 -0.276008 0.480230
rfoot -23.547899 -1.234540
lradius 19.918900
lthumb -13.041000 449.796997
rradius 24.845200
lwrist 5.416330
rhand -40.256302 4.069580
rhumerus 65.589203 -46.104599 -36.899799
lowerneck 0.633170 -0.575030 4.544590
lhand -40.075901 60.225101
ltibia 44.503300
head -7.200260 -1.256310 -0.889836
rwrist -2.947860
lfingers 7.125020
rtoes -11.895200
lowerback 1.751680 -0.244820 2.313220
rfingers 7.125020
lclavicle 0.000000 -0.000000
upperneck -23.102900 -1.364820 -0.733081
rfemur -14.853400 3.490910 29.213600
thorax -6.839460 -0.288715 -0.768021
rclavicle 0.000000 -0.000000
rtibia 47.056000
lfoot -26.070700 -0.904732
lhumerus 18.691401 9.154750 19.323601
rthumb -13.214800 -25.491600
root -4.624570 18.892500 -6.040590 -297.614990 -82.162399 -64.280197
ltoes -9.192180
lfemur -17.086901 1.851850 -15.158400
98
upperback -5.182820 -2.322900 0.068614
rfoot -27.302601 -6.433980
lradius 14.038000
lthumb -0.697183 432.471008
rradius 32.359200
lwrist -28.280300
rhand -40.002300 10.241900
rhumerus 72.482803 -45.838200 -45.140999
lowerneck -0.524691 0.461509 8.380720
lhand -27.286900 42.492802
ltibia 57.107201
head -6.802160 -0.853314 -1.961120
rwrist -12.885100
lfingers 7.125020
rtoes -7.214690
lowerback 3.510610 -1.797760 2.215330
rfingers 7.125020
lclavicle -0.000000 -0.000000
upperneck -22.581600 -0.006493 -1.790420
rfemur -19.527500 2.921690 31.765600
thorax -7.472670 -1.294910 -0.932042
rclavicle -0.000000 -0.000000
rtibia 47.486000
lfoot -23.970600 -2.630500
lhumerus -1.253450 20.720200 39.824200
rthumb -12.970000 -19.334999
root -3.933490 18.646099 -6.416260 -304.424988 -80.798203 -55.667198
ltoes -15.845000
lfemur -23.086100 3.104230 -10.587900
99
upperback -5.460000 -4.071880 -0.778933
rfoot -28.158899 -10.540300
lradius 11.953200
lthumb 5.841610 387.806000
rradius 44.602200
lwrist -35.731602
rhand -34.932098 17.415899
rhumerus 75.728897 -46.195099 -49.216301
lowerneck -1.915800 1.857040 10.729400
lhand -20.516001 -2.093030
ltibia 52.135502
head -6.210040 -0.174257 -2.441420
rwrist -22.811501
lfingers 7.125020
rtoes -8.618550
lowerback 2.527020 -2.937450 0.241187
rfingers 7.125020
lclavicle -0.000000 0.000000
upperneck -21.790600 1.791880 -1.852650
rfemur -28.341299 8.867310 29.856701
thorax -7.182500 -2.086810 -0.586185
rclavicle -0.000000 0.000000
rtibia 55.035599
lfoot 9.973560 7.923710
lhumerus -20.907900 31.549000 44.500900
rthumb -8.079220 -12.409700
root -3.137960 18.273899 -6.402470 -302.968994 -82.320297 -55.013599
ltoes 8.597970
lfemur 5.001070 -4.309110 -4.163330
100
upperback -5.736300 -4.575050 -0.814195
rfoot -27.693300 -13.149600
lradius 10.235500
lthumb 8.774340 381.942993
rradius 55.364300
lwrist -45.734100
rhand -31.118000 21.505800
rhumerus 81.450600 -48.385899 -54.318199
lowerneck -2.647240 1.461710 11.190400
lhand -17.477699 -7.854300
ltibia 12.282700
head -6.265000 -0.573963 -2.569580
rwrist -28.651400
lfingers 7.125020
rtoes -10.673900
lowerback 1.615500 -3.284010 -0.115901
rfingers 7.125020
lclavicle -0.000000 0.000000
upperneck -22.208300 1.078280 -2.109740
rfemur -41.480900 11.245300 25.458200
thorax -6.934330 -2.328390 -0.428669
rclavicle -0.000000 0.000000
rtibia 65.471901
lfoot 10.742800 2.816440
lhumerus -33.757099 38.005699 45.650299
rthumb -4.397100 -8.428540
root -1.770940 17.553699 -5.905430 -314.210999 -81.223999 -41.613602
ltoes 3.793850
lfemur 31.166201 -13.931700 -6.532690
101
upperback -5.250730 -3.028170 -0.440748
rfoot -23.538200 -11.964000
lradius 10.577300
lthumb 16.329300 377.438995
rradius 66.642502
lwrist -39.448101
rhand -23.238800 22.505899
rhumerus 81.595802 -48.747299 -54.715302
lowerneck -2.152040 0.848563 11.271000
lhand -9.641030 -11.893300
ltibia 12.176400
head -5.954460 -0.800891 -2.484890
rwrist -35.665600
lfingers 7.125020
rtoes -14.332400
lowerback 1.398010 -2.152090 -0.615340
rfingers 7.125020
lclavicle -0.000000 -0.000000
upperneck -20.829800 0.444479 -1.913620
rfemur -46.693001 13.803500 22.073601
thorax -6.221760 -1.520310 0.095203
rclavicle -0.000000 -0.000000
rtibia 70.314598
lfoot -6.785250 -7.459700
lhumerus -39.050999 30.110201 53.201099
rthumb 3.212500 -7.449680
root -0.346899 16.990999 -5.272630 -300.992004 -82.529800 -57.844101
ltoes -11.141200
lfemur 33.819401 -12.370900 -6.826720
102
upperback -5.341510 -1.668690 -1.240300
rfoot -22.531799 -7.143400
lradius 11.192900
lthumb 25.066700 370.173004
rradius 74.928001
lwrist -28.145500
rhand -22.558701 20.927700
rhumerus 79.201897 -55.708599 -49.008999
lowerneck -1.053420 -0.158532 9.424580
lhand -0.546593 -18.201599
ltibia 26.468000
head -5.921320 -1.159410 -1.831490
rwrist -48.683601
lfingers 7.125020
rtoes -17.275000
lowerback -0.150779 -1.076710 -1.991100
rfingers 7.125020
lclavicle -0.000000 -0.000000
upperneck -19.962601 -0.615490 -0.978985
rfemur -45.401901 15.224700 19.993000
thorax -5.421610 -0.817154 -0.090254
rclavicle -0.000000 -0.000000
rtibia 72.070999
lfoot -19.075899 -9.825700
lhumerus -45.458000 18.690399 60.544399
rthumb 3.869220 -9.016950
root 0.441975 16.576900 -4.960430 -289.915009 -83.676697 -74.221397
ltoes -16.968000
lfemur 31.914499 -10.496100 -8.266950
103
upperback -6.153640 -1.758650 -2.315310
rfoot -25.152100 -2.240810
lradius 13.666100
lthumb 34.830200 366.897003
rradius 79.623001
lwrist -15.031000
rhand -21.281799 13.352800
rhumerus 91.379997 -57.874001 -59.005600
lowerneck -0.927537 -0.424304 8.188210
lhand 9.687840 -19.698799
ltibia 31.038601
head -6.200120 -1.310370 -1.075590
rwrist -62.156799
lfingers 7.125020
rtoes -21.160801
lowerback -1.299000 -1.045410 -3.392350
rfingers 7.125020
lclavicle 0.000000 -0.000000
upperneck -20.762699 -0.792680 0.715740
rfemur -42.014400 10.490000 21.045300
thorax -5.629210 -0.847201 -0.435909
rclavicle 0.000000 -0.000000
rtibia 74.147400
lfoot -22.300400 -5.663560
lhumerus -51.377602 12.725300 65.056900
rthumb 5.102250 -16.565701
root 0.529825 16.236200 -4.976960 -277.153992 -84.343498 -91.605103
ltoes -17.582100
lfemur 35.828701 -10.066100 -10.789100
